<?xml version="1.0" ?><svg height="25px" version="1.1" viewBox="0 0 25 25" width="25px" xmlns="http://www.w3.org/2000/svg" xmlns:sketch="http://www.bohemiancoding.com/sketch/ns" xmlns:xlink="http://www.w3.org/1999/xlink"><title/><desc/><defs/><g fill="none" fill-rule="evenodd" id="TabBar-Icons" stroke="none" stroke-width="1"><g fill="#000000" id="Clock"><path d="M12.5,25 C19.4035594,25 25,19.4035594 25,12.5 C25,5.59644063 19.4035594,0 12.5,0 C5.59644063,0 0,5.59644063 0,12.5 C0,19.4035594 5.59644063,25 12.5,25 Z M12.5,24 C18.8512746,24 24,18.8512746 24,12.5 C24,6.14872538 18.8512746,1 12.5,1 C6.14872538,1 1,6.14872538 1,12.5 C1,18.8512746 6.14872538,24 12.5,24 Z M12,6 L13,6 L13,15 L12,15 L12,6 Z M13,14 L21,14 L21,15 L13,15 L13,14 Z"/></g></g></svg>