<?xml version="1.0" ?><svg data-name="Layer 1" id="Layer_1" viewBox="0 0 32 32" xmlns="http://www.w3.org/2000/svg"><defs><style>.cls-1{fill:#515151;}</style></defs><title/><path class="cls-1" d="M25,3.63A12.93,12.93,0,0,0,15.47,0,13.09,13.09,0,0,0,3,12.26c0,.33,0,.67,0,1a11.6,11.6,0,0,0,2.83,7.18L16,31.48,26.36,20.21A11.3,11.3,0,0,0,29,13,12.89,12.89,0,0,0,25,3.63ZM25.06,19,16,28.82,7.13,19.2a9.78,9.78,0,0,1-2.38-6q0-.43,0-.86A11.32,11.32,0,0,1,15.54,1.71H16A11.25,11.25,0,0,1,27.25,12.95,9.49,9.49,0,0,1,25.06,19Z"/><rect class="cls-1" height="2" width="10" x="11" y="11"/></svg>